<svg xmlns="http://www.w3.org/2000/svg" width="1480" height="1322" viewBox="0 0 1480 1322" font-family="NanumGothic, NanumSquareRound, sans-serif"><rect width="1480" height="1322" fill="#f8fafc"/><text x="40" y="40" font-size="24" font-weight="900" fill="#0f172a">대상단지 가격추정 모델 — 전체 로직</text><text x="40" y="60" font-size="12" fill="#64748b">realtyprice · priceModel.ts 기준 · 데이터 → 전처리 → 가격앵커 → 상승점수 → 출력</text><rect x="40.0" y="84.0" width="1400.0" height="26.0" rx="6" fill="#6366f1"/><text x="54.0" y="102.0" font-size="13" fill="#ffffff" font-weight="800" text-anchor="start">1. 데이터 수집  (국토부 실거래 · 호가 · 청약홈 · POI · 입주물량)</text><rect x="40.0" y="118.0" width="220.0" height="78.0" rx="8" fill="#ffffff" stroke="#c7d2fe" stroke-width="1.5"/><rect x="40.0" y="118.0" width="5.0" height="78.0" rx="8" fill="#6366f1"/><text x="54.0" y="138.0" font-size="13" fill="#3730a3" font-weight="700" text-anchor="start">대상단지 실거래</text><text x="54.0" y="156.0" font-size="10.5" fill="#475569" font-weight="400" text-anchor="start">매매 + 분양권전매</text><text x="54.0" y="170.0" font-size="10.5" fill="#475569" font-weight="400" text-anchor="start">속도가중 ×1.2</text><rect x="276.0" y="118.0" width="220.0" height="78.0" rx="8" fill="#ffffff" stroke="#c7d2fe" stroke-width="1.5"/><rect x="276.0" y="118.0" width="5.0" height="78.0" rx="8" fill="#6366f1"/><text x="290.0" y="138.0" font-size="13" fill="#3730a3" font-weight="700" text-anchor="start">비교단지 실거래</text><text x="290.0" y="156.0" font-size="10.5" fill="#475569" font-weight="400" text-anchor="start">선택 비교단지 매매</text><text x="290.0" y="170.0" font-size="10.5" fill="#475569" font-weight="400" text-anchor="start">comparableW ≤1.0</text><rect x="512.0" y="118.0" width="220.0" height="78.0" rx="8" fill="#ffffff" stroke="#c7d2fe" stroke-width="1.5"/><rect x="512.0" y="118.0" width="5.0" height="78.0" rx="8" fill="#6366f1"/><text x="526.0" y="138.0" font-size="13" fill="#3730a3" font-weight="700" text-anchor="start">전세 실거래</text><text x="526.0" y="156.0" font-size="10.5" fill="#475569" font-weight="400" text-anchor="start">보증금·계약일</text><text x="526.0" y="170.0" font-size="10.5" fill="#475569" font-weight="400" text-anchor="start">→ 전세가율 산출</text><rect x="748.0" y="118.0" width="220.0" height="78.0" rx="8" fill="#ffffff" stroke="#c7d2fe" stroke-width="1.5"/><rect x="748.0" y="118.0" width="5.0" height="78.0" rx="8" fill="#6366f1"/><text x="762.0" y="138.0" font-size="13" fill="#3730a3" font-weight="700" text-anchor="start">매물 호가</text><text x="762.0" y="156.0" font-size="10.5" fill="#475569" font-weight="400" text-anchor="start">대상·비교 매매호가</text><text x="762.0" y="170.0" font-size="10.5" fill="#475569" font-weight="400" text-anchor="start">전세 호가</text><rect x="984.0" y="118.0" width="220.0" height="78.0" rx="8" fill="#ffffff" stroke="#c7d2fe" stroke-width="1.5"/><rect x="984.0" y="118.0" width="5.0" height="78.0" rx="8" fill="#6366f1"/><text x="998.0" y="138.0" font-size="13" fill="#3730a3" font-weight="700" text-anchor="start">대장아파트 실거래</text><text x="998.0" y="156.0" font-size="10.5" fill="#475569" font-weight="400" text-anchor="start">인근 대장단지 매매</text><text x="998.0" y="170.0" font-size="10.5" fill="#475569" font-weight="400" text-anchor="start">속도가중 ×1.8</text><rect x="1220.0" y="118.0" width="220.0" height="78.0" rx="8" fill="#ffffff" stroke="#c7d2fe" stroke-width="1.5"/><rect x="1220.0" y="118.0" width="5.0" height="78.0" rx="8" fill="#6366f1"/><text x="1234.0" y="138.0" font-size="13" fill="#3730a3" font-weight="700" text-anchor="start">보조 입력</text><text x="1234.0" y="156.0" font-size="10.5" fill="#475569" font-weight="400" text-anchor="start">분양가(청약홈)</text><text x="1234.0" y="170.0" font-size="10.5" fill="#475569" font-weight="400" text-anchor="start">거시·POI·입주물량</text><line x1="740.0" y1="196" x2="740.0" y2="220" stroke="#94a3b8" stroke-width="2"/><path d="M734.0,220 L746.0,220 L740.0,230 Z" fill="#94a3b8"/><text x="756.0" y="217.0" font-size="11" fill="#64748b" font-weight="600" text-anchor="start">전처리·보정</text><rect x="40.0" y="230.0" width="1400.0" height="26.0" rx="6" fill="#0ea5e9"/><text x="54.0" y="248.0" font-size="13" fill="#ffffff" font-weight="800" text-anchor="start">2. 전처리  (시간감쇠 · 면적환산 · 급지보정 · 지역레짐)</text><rect x="40.0" y="264.0" width="338.0" height="86.0" rx="8" fill="#ffffff" stroke="#bae6fd" stroke-width="1.5"/><rect x="40.0" y="264.0" width="5.0" height="86.0" rx="8" fill="#0ea5e9"/><text x="54.0" y="284.0" font-size="13" fill="#0369a1" font-weight="700" text-anchor="start">시간감쇠 가중</text><text x="54.0" y="302.0" font-size="10.5" fill="#475569" font-weight="400" text-anchor="start">서울 ≤1mo×1.5 ~ &gt;12mo×0.55</text><text x="54.0" y="316.0" font-size="10.5" fill="#475569" font-weight="400" text-anchor="start">경기 ≤3mo×1.25 …</text><text x="54.0" y="330.0" font-size="10.5" fill="#475569" font-weight="400" text-anchor="start">공급절벽: 최근 ×1.15 추가</text><rect x="394.0" y="264.0" width="338.0" height="86.0" rx="8" fill="#ffffff" stroke="#bae6fd" stroke-width="1.5"/><rect x="394.0" y="264.0" width="5.0" height="86.0" rx="8" fill="#0ea5e9"/><text x="408.0" y="284.0" font-size="13" fill="#0369a1" font-weight="700" text-anchor="start">면적환산·등급보정</text><text x="408.0" y="302.0" font-size="10.5" fill="#475569" font-weight="400" text-anchor="start">㎡당가 → 선택평형 환산</text><text x="408.0" y="316.0" font-size="10.5" fill="#475569" font-weight="400" text-anchor="start">areaFit ±3%→×1.25</text><text x="408.0" y="330.0" font-size="10.5" fill="#475569" font-weight="400" text-anchor="start">고층/향 등급보정</text><rect x="748.0" y="264.0" width="338.0" height="86.0" rx="8" fill="#ffffff" stroke="#bae6fd" stroke-width="1.5"/><rect x="748.0" y="264.0" width="5.0" height="86.0" rx="8" fill="#0ea5e9"/><text x="762.0" y="284.0" font-size="13" fill="#0369a1" font-weight="700" text-anchor="start">비교단지 급지보정</text><text x="762.0" y="302.0" font-size="10.5" fill="#475569" font-weight="400" text-anchor="start">입지점수 차 → 조정률</text><text x="762.0" y="316.0" font-size="10.5" fill="#475569" font-weight="400" text-anchor="start">개별 ±12% 캡</text><text x="762.0" y="330.0" font-size="10.5" fill="#475569" font-weight="400" text-anchor="start">압력률 ÷2 (±5%)</text><rect x="1102.0" y="264.0" width="338.0" height="86.0" rx="8" fill="#ffffff" stroke="#bae6fd" stroke-width="1.5"/><rect x="1102.0" y="264.0" width="5.0" height="86.0" rx="8" fill="#0ea5e9"/><text x="1116.0" y="284.0" font-size="13" fill="#0369a1" font-weight="700" text-anchor="start">지역 레짐 배수</text><text x="1116.0" y="302.0" font-size="10.5" fill="#475569" font-weight="400" text-anchor="start">서울: 비교압력×1.7 대장×1.6</text><text x="1116.0" y="316.0" font-size="10.5" fill="#475569" font-weight="400" text-anchor="start">경기: 분양×1.4 소진×1.3</text><text x="1116.0" y="330.0" font-size="10.5" fill="#475569" font-weight="400" text-anchor="start">가격앵커 가중치 재조정</text><line x1="740.0" y1="350" x2="740.0" y2="374" stroke="#94a3b8" stroke-width="2"/><path d="M734.0,374 L746.0,374 L740.0,384 Z" fill="#94a3b8"/><text x="756.0" y="371.0" font-size="11" fill="#64748b" font-weight="600" text-anchor="start">가중 산출</text><rect x="40.0" y="384.0" width="1400.0" height="26.0" rx="6" fill="#059669"/><text x="54.0" y="402.0" font-size="13" fill="#ffffff" font-weight="800" text-anchor="start">3. 가격 앵커 11항목  →  가중평균  →  예상가</text><rect x="40.0" y="418.0" width="338.0" height="64.0" rx="8" fill="#ffffff" stroke="#a7f3d0" stroke-width="1.5"/><rect x="40.0" y="418.0" width="5.0" height="64.0" rx="8" fill="#059669"/><text x="54.0" y="438.0" font-size="13" fill="#065f46" font-weight="700" text-anchor="start">① 대상단지 실거래가</text><text x="54.0" y="456.0" font-size="10.5" fill="#475569" font-weight="400" text-anchor="start">선택평형 가중평균</text><text x="54.0" y="470.0" font-size="10.5" fill="#475569" font-weight="400" text-anchor="start">[가중 높음]</text><rect x="394.0" y="418.0" width="338.0" height="64.0" rx="8" fill="#ffffff" stroke="#a7f3d0" stroke-width="1.5"/><rect x="394.0" y="418.0" width="5.0" height="64.0" rx="8" fill="#059669"/><text x="408.0" y="438.0" font-size="13" fill="#065f46" font-weight="700" text-anchor="start">② 비교단지 보정 실거래</text><text x="408.0" y="456.0" font-size="10.5" fill="#475569" font-weight="400" text-anchor="start">급지조정 후 가중평균</text><text x="408.0" y="470.0" font-size="10.5" fill="#475569" font-weight="400" text-anchor="start">[가중 높음]</text><rect x="748.0" y="418.0" width="338.0" height="64.0" rx="8" fill="#ffffff" stroke="#a7f3d0" stroke-width="1.5"/><rect x="748.0" y="418.0" width="5.0" height="64.0" rx="8" fill="#059669"/><text x="762.0" y="438.0" font-size="13" fill="#065f46" font-weight="700" text-anchor="start">③ 비교단지 현재 호가</text><text x="762.0" y="456.0" font-size="10.5" fill="#475569" font-weight="400" text-anchor="start">호가 중앙값·급지조정</text><text x="762.0" y="470.0" font-size="10.5" fill="#475569" font-weight="400" text-anchor="start">[중간]</text><rect x="1102.0" y="418.0" width="338.0" height="64.0" rx="8" fill="#ffffff" stroke="#a7f3d0" stroke-width="1.5"/><rect x="1102.0" y="418.0" width="5.0" height="64.0" rx="8" fill="#059669"/><text x="1116.0" y="438.0" font-size="13" fill="#065f46" font-weight="700" text-anchor="start">④ 대상단지 현재 호가</text><text x="1116.0" y="456.0" font-size="10.5" fill="#475569" font-weight="400" text-anchor="start">매물 호가 중앙값</text><text x="1116.0" y="470.0" font-size="10.5" fill="#475569" font-weight="400" text-anchor="start">[중간]</text><rect x="40.0" y="494.0" width="338.0" height="64.0" rx="8" fill="#ffffff" stroke="#a7f3d0" stroke-width="1.5"/><rect x="40.0" y="494.0" width="5.0" height="64.0" rx="8" fill="#059669"/><text x="54.0" y="514.0" font-size="13" fill="#065f46" font-weight="700" text-anchor="start">⑤ 전세기반 하방가</text><text x="54.0" y="532.0" font-size="10.5" fill="#475569" font-weight="400" text-anchor="start">전세가 ÷ 전세가율</text><text x="54.0" y="546.0" font-size="10.5" fill="#475569" font-weight="400" text-anchor="start">[하방 방어선]</text><rect x="394.0" y="494.0" width="338.0" height="64.0" rx="8" fill="#ffffff" stroke="#a7f3d0" stroke-width="1.5"/><rect x="394.0" y="494.0" width="5.0" height="64.0" rx="8" fill="#059669"/><text x="408.0" y="514.0" font-size="13" fill="#065f46" font-weight="700" text-anchor="start">⑥ 매물소진 반영가</text><text x="408.0" y="532.0" font-size="10.5" fill="#475569" font-weight="400" text-anchor="start">소진율 ≥30%→×1.04</text><text x="408.0" y="546.0" font-size="10.5" fill="#475569" font-weight="400" text-anchor="start">[보조]</text><rect x="748.0" y="494.0" width="338.0" height="64.0" rx="8" fill="#ffffff" stroke="#a7f3d0" stroke-width="1.5"/><rect x="748.0" y="494.0" width="5.0" height="64.0" rx="8" fill="#059669"/><text x="762.0" y="514.0" font-size="13" fill="#065f46" font-weight="700" text-anchor="start">⑦ 분양가 프리미엄</text><text x="762.0" y="532.0" font-size="10.5" fill="#475569" font-weight="400" text-anchor="start">분양가×시세비율</text><text x="762.0" y="546.0" font-size="10.5" fill="#475569" font-weight="400" text-anchor="start">0.90~1.30 캡</text><rect x="1102.0" y="494.0" width="338.0" height="64.0" rx="8" fill="#ffffff" stroke="#a7f3d0" stroke-width="1.5"/><rect x="1102.0" y="494.0" width="5.0" height="64.0" rx="8" fill="#059669"/><text x="1116.0" y="514.0" font-size="13" fill="#065f46" font-weight="700" text-anchor="start">⑧ 거시환경</text><text x="1116.0" y="532.0" font-size="10.5" fill="#475569" font-weight="400" text-anchor="start">수동 입력가</text><text x="1116.0" y="546.0" font-size="10.5" fill="#475569" font-weight="400" text-anchor="start">없으면 제외</text><rect x="40.0" y="570.0" width="338.0" height="64.0" rx="8" fill="#ffffff" stroke="#a7f3d0" stroke-width="1.5"/><rect x="40.0" y="570.0" width="5.0" height="64.0" rx="8" fill="#059669"/><text x="54.0" y="590.0" font-size="13" fill="#065f46" font-weight="700" text-anchor="start">⑨ 대장아파트 앵커</text><text x="54.0" y="608.0" font-size="10.5" fill="#475569" font-weight="400" text-anchor="start">대장가×ratio(0.88)</text><text x="54.0" y="622.0" font-size="10.5" fill="#475569" font-weight="400" text-anchor="start">γ=0.25~0.50</text><rect x="394.0" y="570.0" width="338.0" height="64.0" rx="8" fill="#ffffff" stroke="#a7f3d0" stroke-width="1.5"/><rect x="394.0" y="570.0" width="5.0" height="64.0" rx="8" fill="#059669"/><text x="408.0" y="590.0" font-size="13" fill="#065f46" font-weight="700" text-anchor="start">⑩ 대상 입지 보정</text><text x="408.0" y="608.0" font-size="10.5" fill="#475569" font-weight="400" text-anchor="start">역·마트·공원 실거리</text><text x="408.0" y="622.0" font-size="10.5" fill="#475569" font-weight="400" text-anchor="start">최대 ±8%</text><rect x="748.0" y="570.0" width="338.0" height="64.0" rx="8" fill="#ffffff" stroke="#a7f3d0" stroke-width="1.5"/><rect x="748.0" y="570.0" width="5.0" height="64.0" rx="8" fill="#059669"/><text x="762.0" y="590.0" font-size="13" fill="#065f46" font-weight="700" text-anchor="start">⑪ 비교단지 급지압력</text><text x="762.0" y="608.0" font-size="10.5" fill="#475569" font-weight="400" text-anchor="start">상급多+5%/하급-5%</text><text x="762.0" y="622.0" font-size="10.5" fill="#475569" font-weight="400" text-anchor="start">[중간]</text><rect x="40.0" y="648.0" width="1400.0" height="56.0" rx="8" fill="#1e293b"/><text x="58.0" y="672.0" font-size="14" fill="#34d399" font-weight="700" text-anchor="start" font-family="monospace">가중평균 = Σ(값ᵢ × weightᵢ) / Σ(weightᵢ)</text><text x="58.0" y="692.0" font-size="11.5" fill="#cbd5e1" font-weight="400" text-anchor="start" font-family="monospace">(값&gt;0 &amp; weight&gt;0 인 항목만 합산)   →   expectedSaleMid = round(가중평균)   ·   Min ×0.97 / Max ×1.03</text><line x1="740.0" y1="704" x2="740.0" y2="728" stroke="#94a3b8" stroke-width="2"/><path d="M734.0,728 L746.0,728 L740.0,738 Z" fill="#94a3b8"/><text x="756.0" y="725.0" font-size="11" fill="#64748b" font-weight="600" text-anchor="start">상승가능성 점수</text><rect x="40.0" y="738.0" width="1400.0" height="26.0" rx="6" fill="#d97706"/><text x="54.0" y="756.0" font-size="13" fill="#ffffff" font-weight="800" text-anchor="start">4. 상승가능성 점수 upsideScore  (기저 35 + 가산)</text><rect x="40.0" y="772.0" width="150.0" height="118.0" rx="8" fill="#ffffff" stroke="#fcd34d" stroke-width="1.5"/><rect x="40.0" y="772.0" width="5.0" height="118.0" rx="8" fill="#d97706"/><text x="54.0" y="794.0" font-size="13" fill="#92400e" font-weight="700" text-anchor="start">기저값</text><text x="117.0" y="834.0" font-size="30" fill="#92400e" font-weight="900" text-anchor="middle">+35</text><text x="117.0" y="858.0" font-size="10.5" fill="#475569" font-weight="400" text-anchor="middle">중립 출발점</text><text x="117.0" y="874.0" font-size="10" fill="#94a3b8" font-weight="400" text-anchor="middle">(데이터 존재 시)</text><rect x="204.0" y="772.0" width="298.5" height="118.0" rx="8" fill="#ffffff" stroke="#fcd34d" stroke-width="1.5"/><rect x="204.0" y="772.0" width="5.0" height="118.0" rx="8" fill="#d97706"/><text x="218.0" y="792.0" font-size="12" fill="#92400e" font-weight="700" text-anchor="start">거래 속도  (최대 +25)</text><text x="218.0" y="812.0" font-size="10" fill="#475569" font-weight="400" text-anchor="start">3-tier 일평균 속도 + 신고지연×2 보정</text><text x="218.0" y="826.5" font-size="10" fill="#475569" font-weight="400" text-anchor="start">accel14=r14/r90, accel30=r30/r90</text><text x="218.0" y="841.0" font-size="10" fill="#475569" font-weight="400" text-anchor="start">2주: ≥1.3→+15 ≥1.0→+10 ≥0.5→+4</text><text x="218.0" y="855.5" font-size="10" fill="#475569" font-weight="400" text-anchor="start">1개월: ≥1.2→+7 ≥0.9→+4</text><text x="218.0" y="870.0" font-size="10" fill="#475569" font-weight="400" text-anchor="start">3개월 ≥5건→+3  /  폴백 ≥3건→+5</text><rect x="516.5" y="772.0" width="298.5" height="118.0" rx="8" fill="#ffffff" stroke="#fcd34d" stroke-width="1.5"/><rect x="516.5" y="772.0" width="5.0" height="118.0" rx="8" fill="#d97706"/><text x="530.5" y="792.0" font-size="12" fill="#92400e" font-weight="700" text-anchor="start">전세 수요/공급  (-4~+7)</text><text x="530.5" y="812.0" font-size="10" fill="#475569" font-weight="400" text-anchor="start">전세가율 = 전세 ÷ 매매 (중앙값)</text><text x="530.5" y="826.5" font-size="10" fill="#475569" font-weight="400" text-anchor="start">≥0.70 → +7  (수요 압력)</text><text x="530.5" y="841.0" font-size="10" fill="#475569" font-weight="400" text-anchor="start">≥0.60 → +3  (보통)</text><text x="530.5" y="855.5" font-size="10" fill="#475569" font-weight="400" text-anchor="start">≥0.50 →  0  (중립)</text><text x="530.5" y="870.0" font-size="10" fill="#475569" font-weight="400" text-anchor="start">&lt;0.50 → -4  (공급 여력)</text><rect x="829.0" y="772.0" width="298.5" height="118.0" rx="8" fill="#ffffff" stroke="#fcd34d" stroke-width="1.5"/><rect x="829.0" y="772.0" width="5.0" height="118.0" rx="8" fill="#d97706"/><text x="843.0" y="792.0" font-size="12" fill="#92400e" font-weight="700" text-anchor="start">대장 앵커 상방  (0/+6)</text><text x="843.0" y="812.0" font-size="10" fill="#475569" font-weight="400" text-anchor="start">대장 환산가 &gt; 비교단지 시세</text><text x="843.0" y="826.5" font-size="10" fill="#475569" font-weight="400" text-anchor="start">→ +6  (상방 전이 기대)</text><text x="843.0" y="841.0" font-size="10" fill="#475569" font-weight="400" text-anchor="start"></text><text x="843.0" y="855.5" font-size="10" fill="#475569" font-weight="400" text-anchor="start">대장 미설정 → +0</text><rect x="1141.5" y="772.0" width="298.5" height="118.0" rx="8" fill="#ffffff" stroke="#fcd34d" stroke-width="1.5"/><rect x="1141.5" y="772.0" width="5.0" height="118.0" rx="8" fill="#d97706"/><text x="1155.5" y="792.0" font-size="12" fill="#92400e" font-weight="700" text-anchor="start">비교단지 급지압력  (-3~+6)</text><text x="1155.5" y="812.0" font-size="10" fill="#475569" font-weight="400" text-anchor="start">pressureRate × 120 (상급, 최대+6)</text><text x="1155.5" y="826.5" font-size="10" fill="#475569" font-weight="400" text-anchor="start">pressureRate × 60  (하급, 최소-3)</text><text x="1155.5" y="841.0" font-size="10" fill="#475569" font-weight="400" text-anchor="start"></text><text x="1155.5" y="855.5" font-size="10" fill="#475569" font-weight="400" text-anchor="start">서울 레짐 ×1.7 반영됨</text><rect x="40.0" y="904.0" width="1400.0" height="46.0" rx="8" fill="#1e293b"/><text x="58.0" y="923.0" font-size="13" fill="#fbbf24" font-weight="700" text-anchor="start" font-family="monospace">upsideScore = min(100, round( 35 + 거래속도 + 전세신호 + 대장상방 + 비교압력 ))</text><text x="58.0" y="941.0" font-size="10.5" fill="#cbd5e1" font-weight="400" text-anchor="start" font-family="monospace">hasMinData=false (대상실거래·비교실거래·호가 모두 부족) → upsideScore = 0</text><line x1="740.0" y1="950" x2="740.0" y2="974" stroke="#94a3b8" stroke-width="2"/><path d="M734.0,974 L746.0,974 L740.0,984 Z" fill="#94a3b8"/><text x="756.0" y="971.0" font-size="11" fill="#64748b" font-weight="600" text-anchor="start">신뢰도·결론</text><rect x="40.0" y="984.0" width="1400.0" height="26.0" rx="6" fill="#7c3aed"/><text x="54.0" y="1002.0" font-size="13" fill="#ffffff" font-weight="800" text-anchor="start">5. 최종 출력</text><rect x="40.0" y="1018.0" width="267.2" height="80.0" rx="8" fill="#ffffff" stroke="#ddd6fe" stroke-width="1.5"/><rect x="40.0" y="1018.0" width="5.0" height="80.0" rx="8" fill="#7c3aed"/><text x="54.0" y="1038.0" font-size="13" fill="#5b21b6" font-weight="700" text-anchor="start">예상 매매가</text><text x="54.0" y="1056.0" font-size="10.5" fill="#475569" font-weight="400" text-anchor="start">Mid = 가중평균</text><text x="54.0" y="1070.0" font-size="10.5" fill="#475569" font-weight="400" text-anchor="start">Min ×0.97 / Max ×1.03</text><rect x="323.2" y="1018.0" width="267.2" height="80.0" rx="8" fill="#ffffff" stroke="#ddd6fe" stroke-width="1.5"/><rect x="323.2" y="1018.0" width="5.0" height="80.0" rx="8" fill="#7c3aed"/><text x="337.2" y="1038.0" font-size="13" fill="#5b21b6" font-weight="700" text-anchor="start">예상 전세가</text><text x="337.2" y="1056.0" font-size="10.5" fill="#475569" font-weight="400" text-anchor="start">전세거래+호가 평균</text><text x="337.2" y="1070.0" font-size="10.5" fill="#475569" font-weight="400" text-anchor="start">Min/Mid/Max</text><rect x="606.4" y="1018.0" width="267.2" height="80.0" rx="8" fill="#ffffff" stroke="#ddd6fe" stroke-width="1.5"/><rect x="606.4" y="1018.0" width="5.0" height="80.0" rx="8" fill="#7c3aed"/><text x="620.4" y="1038.0" font-size="13" fill="#5b21b6" font-weight="700" text-anchor="start">권장호가 / 방어가</text><text x="620.4" y="1056.0" font-size="10.5" fill="#475569" font-weight="400" text-anchor="start">권장 = Mid×1.03~1.05</text><text x="620.4" y="1070.0" font-size="10.5" fill="#475569" font-weight="400" text-anchor="start">방어 = Mid×0.98</text><rect x="889.6" y="1018.0" width="267.2" height="80.0" rx="8" fill="#ffffff" stroke="#ddd6fe" stroke-width="1.5"/><rect x="889.6" y="1018.0" width="5.0" height="80.0" rx="8" fill="#7c3aed"/><text x="903.6" y="1038.0" font-size="13" fill="#5b21b6" font-weight="700" text-anchor="start">신뢰도 (0~100)</text><text x="903.6" y="1056.0" font-size="10.5" fill="#475569" font-weight="400" text-anchor="start">실거래수·최근거래</text><text x="903.6" y="1070.0" font-size="10.5" fill="#475569" font-weight="400" text-anchor="start">호가·대장·전세 보너스</text><rect x="1172.8" y="1018.0" width="267.2" height="80.0" rx="8" fill="#ffffff" stroke="#ddd6fe" stroke-width="1.5"/><rect x="1172.8" y="1018.0" width="5.0" height="80.0" rx="8" fill="#7c3aed"/><text x="1186.8" y="1038.0" font-size="13" fill="#5b21b6" font-weight="700" text-anchor="start">결론 6단계</text><text x="1186.8" y="1056.0" font-size="10.5" fill="#475569" font-weight="400" text-anchor="start">≥75 강한상승 / ≥60 상승</text><text x="1186.8" y="1070.0" font-size="10.5" fill="#475569" font-weight="400" text-anchor="start">≥45 보합 / &lt;30 조정필요</text><line x1="740.0" y1="1098" x2="740.0" y2="1122" stroke="#94a3b8" stroke-width="2"/><path d="M734.0,1122 L746.0,1122 L740.0,1132 Z" fill="#94a3b8"/><text x="756.0" y="1119.0" font-size="11" fill="#64748b" font-weight="600" text-anchor="start">입주물량 2시점 보정</text><rect x="40.0" y="1132.0" width="1400.0" height="26.0" rx="6" fill="#64748b"/><text x="54.0" y="1150.0" font-size="13" fill="#ffffff" font-weight="800" text-anchor="start">6. 입주물량 2시점 시뮬레이션  (국토부 입주예정물량 API)</text><rect x="40.0" y="1166.0" width="692.0" height="92.0" rx="8" fill="#ffffff" stroke="#cbd5e1" stroke-width="1.5"/><rect x="40.0" y="1166.0" width="5.0" height="92.0" rx="8" fill="#64748b"/><text x="54.0" y="1186.0" font-size="13" fill="#334155" font-weight="700" text-anchor="start">현재시점 (오늘 기준 3개월)</text><text x="54.0" y="1206.0" font-size="10.5" fill="#475569" font-weight="400" text-anchor="start">lawdCd 시군구 입주 세대수 합산</text><text x="54.0" y="1221.0" font-size="10.5" fill="#475569" font-weight="400" text-anchor="start">≥3000→-5% ≥2000→-3% ≥1000→-1%</text><text x="54.0" y="1236.0" font-size="10.5" fill="#475569" font-weight="400" text-anchor="start">≥500→0% ≥200→+2% &lt;200→+3%</text><rect x="748.0" y="1166.0" width="692.0" height="92.0" rx="8" fill="#eff6ff" stroke="#bfdbfe" stroke-width="1.5"/><rect x="748.0" y="1166.0" width="5.0" height="92.0" rx="8" fill="#3b82f6"/><text x="762.0" y="1186.0" font-size="13" fill="#1e40af" font-weight="700" text-anchor="start">입주시점 (expectedMoveInYm ±1개월)</text><text x="762.0" y="1206.0" font-size="10.5" fill="#475569" font-weight="400" text-anchor="start">같은 공급압력 공식 적용</text><text x="762.0" y="1221.0" font-size="10.5" fill="#475569" font-weight="400" text-anchor="start">시뮬레이션가 = Mid × (1 + 입주시점% − 현재%)</text><text x="762.0" y="1236.0" font-size="10.5" fill="#475569" font-weight="400" text-anchor="start">※ 다른 요소 고정, 공급 변화분만 반영</text><text x="40.0" y="1282.0" font-size="10.5" fill="#94a3b8" font-weight="400" text-anchor="start">⚠ 가중치 배수·점수 구간은 리서치 기반 prior이며 실증 계수가 아님 (백테스트 보정 대상)</text></svg>